<svg width="24" height="32" viewBox="0 0 24 32" fill="none" xmlns="http://www.w3.org/2000/svg">
  <path id="shape-gray" fill-rule="evenodd" clip-rule="evenodd" d="M1.71428 28.0845C1.71428 30.0153 3.25714 31.595 5.14286 31.595H18.8571C20.7429 31.595 22.2857 30.0153 22.2857 28.0845V7.02111H1.71428V28.0845ZM24 1.75528H18L16.2857 0H7.71429L6 1.75528H0V5.26584H24V1.75528Z" fill="black" fill-opacity="0.54"/>
  <path id="up-arrow" opacity="0.54" fill-rule="evenodd" clip-rule="evenodd" d="M0 8L1.225 9.4L6.125 3.8L6.125 16L7.875 16L7.875 3.8L12.775 9.4L14 8L7 0L0 8Z" fill="black"/>
  <path id="shape-white" fill-rule="evenodd" clip-rule="evenodd" d="M1 16C1 17.1 1.9 18 3 18H11C12.1 18 13 17.1 13 16V4H1V16ZM14 1H10.5L9.5 0H4.5L3.5 1H0V3H14V1Z" fill="white"/>
  <path id="icon-info" fill-rule="evenodd" clip-rule="evenodd" d="M9.80163 16C4.87692 16 0.880058 12.416 0.880058 8C0.880058 3.584 4.87692 0 9.80163 0C14.7263 0 18.7232 3.584 18.7232 8C18.7232 12.416 14.7263 16 9.80163 16ZM10.6935 3.99999H8.90923V8.79999H10.6935V3.99999ZM10.6935 10.4H8.90923V12H10.6935V10.4Z" fill="white"/>
  <path id="triangle-down" fill-rule="evenodd" clip-rule="evenodd" d="M0 0L5 5L10 0H0Z" fill="black" fill-opacity="0.54"/>
  <path id="arrow-left" fill-rule="evenodd" clip-rule="evenodd" d="M8 14L3.4 8L8 1.86667L6.6 0L0.6 8L6.6 16L8 14Z" fill="black" fill-opacity="0.54"/>
  <path id="arrow-right" fill-rule="evenodd" clip-rule="evenodd" d="M0 14L4.6 8L0 1.86667L1.4 0L7.4 8L1.4 16L0 14Z" fill="black" fill-opacity="0.54"/>
</svg>

